<svg width="145" height="100" viewBox="0 0 145 100" fill="none" xmlns="http://www.w3.org/2000/svg">
<path d="M117.812 15.625H27.1875C19.6799 15.625 13.5938 19.8223 13.5938 25V75C13.5938 80.1777 19.6799 84.375 27.1875 84.375H117.812C125.32 84.375 131.406 80.1777 131.406 75V25C131.406 19.8223 125.32 15.625 117.812 15.625Z" stroke="#5B5F6E" stroke-width="5" stroke-linejoin="round"/>
<path d="M95.1562 40.625C100.161 40.625 104.219 37.8268 104.219 34.375C104.219 30.9232 100.161 28.125 95.1562 28.125C90.1512 28.125 86.0938 30.9232 86.0938 34.375C86.0938 37.8268 90.1512 40.625 95.1562 40.625Z" stroke="#5B5F6E" stroke-width="5" stroke-miterlimit="10"/>
<path d="M86.0938 65.584L60.4186 47.9102C58.7848 46.7837 56.5888 46.13 54.2796 46.0828C51.9703 46.0356 49.7221 46.5985 47.9944 47.6563L13.5938 68.75M63.4375 84.375L98.3678 60.2852C99.9652 59.1813 102.103 58.5291 104.362 58.4569C106.621 58.3846 108.838 58.8974 110.577 59.8945L131.406 71.875" stroke="#5B5F6E" stroke-width="5" stroke-linecap="round" stroke-linejoin="round"/>
</svg>
